<svg width="15" height="17" viewBox="0 0 15 17" fill="none" xmlns="http://www.w3.org/2000/svg">
<path d="M9.12612 9.33741C8.79946 9.33741 8.53541 9.62928 8.53541 9.98892V12.5949C8.53541 12.9539 8.27078 13.2465 7.94471 13.2465H6.17258V3.47383C6.17258 2.91744 5.85124 2.42034 5.36804 2.23531L5.19319 2.17081H7.94471C8.27078 2.17081 8.53541 2.46334 8.53541 2.82232V4.77685C8.53541 5.13648 8.79946 5.42836 9.12612 5.42836C9.45278 5.42836 9.71683 5.13648 9.71683 4.77685V2.82232C9.71683 1.74473 8.92174 0.867798 7.94471 0.867798H1.5946C1.57215 0.867798 1.55325 0.878873 1.53139 0.882131C1.50304 0.879525 1.47586 0.867798 1.44692 0.867798C0.795368 0.867798 0.265503 1.4522 0.265503 2.17081V13.898C0.265503 14.4544 0.586848 14.9515 1.07005 15.1365L4.62493 16.4434C4.74543 16.4845 4.86535 16.504 4.99117 16.504C5.64272 16.504 6.17258 15.9196 6.17258 15.201V14.5495H7.94471C8.92174 14.5495 9.71683 13.6725 9.71683 12.5949V9.98892C9.71683 9.62928 9.45278 9.33741 9.12612 9.33741Z" fill="white"/>
<path d="M14.2694 6.92229L11.9066 4.31626C11.7377 4.12993 11.4836 4.0739 11.2627 4.17488C11.0424 4.27587 10.8983 4.51367 10.8983 4.77688V6.7314H8.53541C8.20934 6.7314 7.9447 7.02328 7.9447 7.38291C7.9447 7.74254 8.20934 8.03442 8.53541 8.03442H10.8983V9.98894C10.8983 10.2522 11.0424 10.49 11.2627 10.5909C11.4836 10.6919 11.7377 10.6359 11.9066 10.4496L14.2694 7.84353C14.5004 7.58879 14.5004 7.17703 14.2694 6.92229Z" fill="white"/>
</svg>
